<svg xmlns="http://www.w3.org/2000/svg" preserveAspectRatio="xMidYMin slice" viewBox="24 105 156 95" >
    <defs>
        <style type="text/css">@keyframes rotate {100% {transform: rotate(360deg) }}.top-outer {transform-origin: 73px 69px;animation: rotate 30s linear infinite;}.top-inner {transform-origin: 73px 69px;animation: rotate 20s linear infinite;}.bottom-outer {transform-origin: 134px 222px;animation: rotate 30s linear infinite;}.bottom-inner {transform-origin: 134px 222px;animation: rotate 20s linear infinite;}</style>
    </defs>
    <rect x="0" y="0" width="300" height="300" fill="#41cc70"/>
    <path class="top-outer" fill="#1fab0f" stroke="#0b7000" stroke-width="1" d="M68 1c23,0 67,17 69,39 4,38 5,52 -5,69 -20,36 -68,46 -120,-9 -27,-28 -7,-101 56,-99z"/>
    <path class="top-inner" fill="#57ff6d" stroke="#35942b" stroke-width="1" d="M69 22c33,-7 52,21 54,37 3,26 -1,28 -8,40 -15,25 -48,25 -85,-14 -19,-20 -4,-53 39,-63z"/>
    <path class="bottom-outer" fill="#5ed450" stroke="#228a00" stroke-width="1" d="M158 158c30,13 56,50 44,75 -9,18 -22,46 -42,55 -20,10 -48,2 -73,-19 -29,-25 -27,-55 -9,-79 17,-22 43,-48 80,-32z"/>
    <path class="bottom-inner" fill="#00a115" stroke="#00ff22" stroke-width="1" d="M136 180c32,-9 45,13 46,29 3,27 8,29 0,42 -14,25 -52,24 -79,0 -21,-18 -2,-61 33,-71z"/>
</svg>